<svg id="Capa_1" data-name="Capa 1" xmlns="http://www.w3.org/2000/svg" viewBox="0 0 30 29.27"><defs><style>.cls-1{fill:#144151;}</style></defs><title>github</title><path class="cls-1" d="M28,7.84a14.89,14.89,0,0,0-5.46-5.46A14.69,14.69,0,0,0,15,.37a14.69,14.69,0,0,0-7.53,2A14.89,14.89,0,0,0,2,7.84a14.69,14.69,0,0,0-2,7.53,14.55,14.55,0,0,0,2.86,8.81,14.63,14.63,0,0,0,7.39,5.42.86.86,0,0,0,.78-.13.77.77,0,0,0,.26-.59s0-.39,0-1.05,0-1.25,0-1.74l-.45.08a6.58,6.58,0,0,1-1.08.07,9.37,9.37,0,0,1-1.36-.14,3,3,0,0,1-1.31-.59,2.45,2.45,0,0,1-.86-1.2L6,23.86a4.76,4.76,0,0,0-.62-1,2.4,2.4,0,0,0-.85-.75L4.41,22a1.88,1.88,0,0,1-.25-.24A1.06,1.06,0,0,1,4,21.52a.18.18,0,0,1,.1-.23,1.46,1.46,0,0,1,.57-.08l.39.06a2.83,2.83,0,0,1,1,.46,3.07,3.07,0,0,1,.94,1A3.43,3.43,0,0,0,8,24a2.29,2.29,0,0,0,1.28.42,5.13,5.13,0,0,0,1.11-.1,3.79,3.79,0,0,0,.88-.29,3.18,3.18,0,0,1,.95-2,14.75,14.75,0,0,1-2-.35,7.8,7.8,0,0,1-1.83-.77,5.32,5.32,0,0,1-1.58-1.3,6.6,6.6,0,0,1-1-2.06,9.61,9.61,0,0,1-.4-2.93,5.69,5.69,0,0,1,1.54-4,5.26,5.26,0,0,1,.14-4,2.73,2.73,0,0,1,1.68.26,11.58,11.58,0,0,1,1.63.75l.83.53a14,14,0,0,1,7.5,0l.74-.47a10.8,10.8,0,0,1,1.8-.86,2.53,2.53,0,0,1,1.58-.21,5.18,5.18,0,0,1,.16,4,5.7,5.7,0,0,1,1.54,4,9.7,9.7,0,0,1-.4,2.93,6.2,6.2,0,0,1-1,2.06,5.63,5.63,0,0,1-1.59,1.29,7.8,7.8,0,0,1-1.83.77,14.75,14.75,0,0,1-2,.35,3.49,3.49,0,0,1,1,2.77v4.12a.79.79,0,0,0,.24.59.87.87,0,0,0,.78.13,14.69,14.69,0,0,0,7.39-5.42A14.55,14.55,0,0,0,30,15.37,14.69,14.69,0,0,0,28,7.84Z" transform="translate(0 -0.37)"/></svg>